<svg xmlns="http://www.w3.org/2000/svg" width="1280" height="640" viewBox="0 0 1280 640" role="img" aria-labelledby="title desc">
<title id="title">loading: a live countdown for Claude Code</title>
<desc id="desc">The load banner, the spinner and status line with ~3m left, and the install command.</desc>

<defs>
<path id="pixel-48" d="M50-400L50 0L100 0L100-200L250-200L250 0L300 0L300-400L250-400L250-250L100-250L100-400Z"/>
<path id="pixel-6f" d="M100-300L100-250L250-250L250-300ZM250-250L250-50L300-50L300-250ZM50-250L50-50L100-50L100-250ZM100-50L100 0L250 0L250-50Z"/>
<path id="pixel-77" d="M50-300L50-50L100-50L100-300ZM250-300L250-50L200-50L200 0L300 0L300-300ZM200-50L200-300L150-300L150-50ZM100-50L100 0L150 0L150-50Z"/>
<path id="pixel-6c" d="M150-350L150-50L50-50L50 0L300 0L300-50L200-50L200-400L50-400L50-350Z"/>
<path id="pixel-6e" d="M50-300L50 0L100 0L100-200L150-200L150-250L100-250L100-300ZM150-300L150-250L250-250L250-300ZM250-250L250 0L300 0L300-250Z"/>
<path id="pixel-67" d="M100-300L100-250L200-250L200-300ZM50-250L50-50L100-50L100-250ZM100-50L100 0L200 0L200-50ZM100 50L100 100L250 100L250 50ZM200-100L200-50L250-50L250 50L300 50L300-300L250-300L250-250L200-250L200-200L250-200L250-100Z"/>
<path id="pixel-69" d="M150-250L150-50L50-50L50 0L300 0L300-50L200-50L200-300L50-300L50-250ZM150-400L150-350L200-350L200-400Z"/>
<path id="pixel-74" d="M100-400L100-300L50-300L50-250L100-250L100-50L150-50L150-250L300-250L300-300L150-300L150-400ZM150-50L150 0L250 0L250-50ZM250-100L250-50L300-50L300-100Z"/>
<path id="pixel-68" d="M50-400L50 0L100 0L100-200L150-200L150-250L100-250L100-400ZM250-250L250 0L300 0L300-250ZM150-300L150-250L250-250L250-300Z"/>
<path id="pixel-73" d="M250-50L100-50L100 0L250 0ZM100-50L100-100L50-100L50-50ZM250-300L100-300L100-250L250-250ZM50-250L50-200L100-200L100-250ZM100-200L100-150L250-150L250-200ZM250-150L250-50L300-50L300-150ZM250-250L250-200L300-200L300-250Z"/>
<path id="pixel-61" d="M50-150L50-50L100-50L100-150ZM100-50L100 0L200 0L200-50ZM200-100L200-50L250-50L250 0L300 0L300-250L250-250L250-200L100-200L100-150L250-150L250-100ZM100-300L100-250L250-250L250-300Z"/>
<path id="pixel-6b" d="M50-400L50 0L100 0L100-100L200-100L200-200L150-200L150-150L100-150L100-400ZM250-300L250-250L300-250L300-300ZM200-250L200-200L250-200L250-250ZM200-100L200-50L250-50L250-100ZM250-50L250 0L300 0L300-50Z"/>
<path id="pixel-65" d="M100-300L100-250L250-250L250-300ZM50-250L50-50L100-50L100-150L300-150L300-250L250-250L250-200L100-200L100-250ZM100-50L100 0L250 0L250-50ZM250-100L250-50L300-50L300-100Z"/>
<path id="pixel-3f" d="M250-350L250-400L100-400L100-350ZM250-350L250-250L300-250L300-350ZM200-250L200-200L250-200L250-250ZM150-200L150-100L200-100L200-200ZM150-50L150 0L200 0L200-50ZM50-350L50-300L100-300L100-350Z"/>
<path id="mono-41" d="M142 0L50 0L240-730L361-730L550 0L459 0L411-194L190-194L142 0ZM264-496L208-270L392-270L336-495Q320-559 311-602Q302-645 300-658L300-658Q298-645 289-602Q280-559 264-496L264-496Z"/>
<path id="mono-6c" d="M550 0L380 0Q307 0 263.5-42.5Q220-85 220-155L220-155L220-648L30-648L30-730L310-730L310-155Q310-121 329-101.5Q348-82 380-82L380-82L550-82L550 0Z"/>
<path id="mono-69" d="M555 0L85 0L85-82L280-82L280-468L105-468L105-550L370-550L370-82L555-82L555 0ZM315-649L315-649Q282-649 263-666Q244-683 244-712L244-712Q244-742 263-759.5Q282-777 315-777L315-777Q348-777 367-759.5Q386-742 386-712L386-712Q386-683 367-666Q348-649 315-649Z"/>
<path id="mono-76" d="M359 0L241 0L54-550L151-550L271-180Q282-147 290-116.5Q298-86 302-69L302-69Q307-86 314-116.5Q321-147 331-180L331-180L451-550L546-550L359 0Z"/>
<path id="mono-65" d="M300 10L300 10Q203 10 143.5-48.5Q84-107 84-210L84-210L84-340Q84-443 143.5-501.5Q203-560 300-560L300-560Q365-560 413.5-534Q462-508 489-461Q516-414 516-350L516-350L516-252L172-252L172-200Q172-139 207-103.5Q242-68 300-68L300-68Q350-68 382.5-87.5Q415-107 422-140L422-140L512-140Q503-71 445-30.5Q387 10 300 10ZM172-350L172-322L428-322L428-350Q428-415 394.5-450.5Q361-486 300-486L300-486Q239-486 205.5-450.5Q172-415 172-350L172-350Z"/>
<path id="mono-63" d="M308 10L308 10Q208 10 148-46Q88-102 88-200L88-200L88-350Q88-448 148-504Q208-560 308-560L308-560Q403-560 461.5-509Q520-458 523-370L523-370L433-370Q430-423 397-451.5Q364-480 308-480L308-480Q249-480 213.5-446.5Q178-413 178-351L178-351L178-200Q178-138 213.5-104Q249-70 308-70L308-70Q364-70 397-99Q430-128 433-180L433-180L523-180Q520-92 461.5-41Q403 10 308 10Z"/>
<path id="mono-6f" d="M300 8L300 8Q201 8 142.5-50Q84-108 84-212L84-212L84-338Q84-443 142-500.5Q200-558 300-558L300-558Q400-558 458-500.5Q516-443 516-338L516-338L516-212Q516-108 457.5-50Q399 8 300 8ZM300-72L300-72Q359-72 392.5-105Q426-138 426-202L426-202L426-348Q426-412 392.5-445Q359-478 300-478L300-478Q242-478 208-445Q174-412 174-348L174-348L174-202Q174-138 208-105Q242-72 300-72Z"/>
<path id="mono-75" d="M299 10L299 10Q204 10 147-46.5Q90-103 90-200L90-200L90-550L180-550L180-200Q180-140 212-104.5Q244-69 299-69L299-69Q355-69 387.5-104.5Q420-140 420-200L420-200L420-550L510-550L510-200Q510-103 452-46.5Q394 10 299 10Z"/>
<path id="mono-6e" d="M182 0L92 0L92-550L182-550L182-445L183-445Q190-500 228-530Q266-560 329-560L329-560Q412-560 461-509Q510-458 510-370L510-370L510 0L420 0L420-354Q420-417 388.5-450.5Q357-484 303-484L303-484Q247-484 214.5-449Q182-414 182-350L182-350L182 0Z"/>
<path id="mono-74" d="M515 0L355 0Q287 0 246-39.5Q205-79 205-145L205-145L205-468L47-468L47-550L205-550L205-705L295-705L295-550L520-550L520-468L295-468L295-145Q295-117 311.5-99.5Q328-82 355-82L355-82L515-82L515 0Z"/>
<path id="mono-64" d="M268 10L268 10Q186 10 136.5-45Q87-100 87-194L87-194L87-355Q87-450 136-505Q185-560 268-560L268-560Q330-560 370.5-529Q411-498 419-445L419-445L420-445L418-570L418-730L508-730L508 0L418 0L418-105L417-105Q410-51 370-20.5Q330 10 268 10ZM298-68L298-68Q354-68 386-103Q418-138 418-200L418-200L418-350Q418-412 386-447Q354-482 298-482L298-482Q241-482 209-452.5Q177-423 177-355L177-355L177-195Q177-128 209-98Q241-68 298-68Z"/>
<path id="mono-77" d="M220 0L121 0L31-550L109-550L165-162Q168-140 171-113.5Q174-87 175-70L175-70Q177-87 179.5-113.5Q182-140 186-162L186-162L255-550L345-550L414-162Q418-140 421.5-113.5Q425-87 426-70L426-70Q428-87 431-113.5Q434-140 437-162L437-162L495-550L569-550L475 0L376 0L313-380Q309-408 305.5-439.5Q302-471 300-488L300-488Q299-471 295-439.5Q291-408 286-380L286-380L220 0Z"/>
<path id="mono-66" d="M305 0L215 0L215-393L55-393L55-475L215-475L215-590Q215-655 256-692.5Q297-730 369-730L369-730L530-730L530-648L369-648Q305-648 305-590L305-590L305-475L530-475L530-393L305-393L305 0Z"/>
<path id="mono-72" d="M202 0L112 0L112-550L202-550L202-445L204-445Q211-498 249-529Q287-560 351-560L351-560Q437-560 483.5-508.5Q530-457 530-362L530-362L530-315L440-315L440-362Q440-482 323-482L323-482Q264-482 233-448Q202-414 202-350L202-350L202 0Z"/>
<path id="mono-43" d="M308 10L308 10Q208 10 150-46Q92-102 92-200L92-200L92-530Q92-628 150-684Q208-740 308-740L308-740Q406-740 464-683.5Q522-627 522-530L522-530L432-530Q432-592 399.5-625.5Q367-659 308-659L308-659Q249-659 215.5-625.5Q182-592 182-530L182-530L182-200Q182-138 215.5-104.5Q249-71 308-71L308-71Q367-71 399.5-104.5Q432-138 432-200L432-200L522-200Q522-103 464-46.5Q406 10 308 10Z"/>
<path id="mono-61" d="M252 10L252 10Q167 10 117-37.5Q67-85 67-162L67-162Q67-213 90-251Q113-289 154-310.5Q195-332 248-332L248-332L418-332L418-375Q418-482 301-482L301-482Q249-482 217-463Q185-444 183-410L183-410L93-410Q98-475 153.5-517.5Q209-560 301-560L301-560Q401-560 454.5-512Q508-464 508-378L508-378L508 0L419 0L419-100L417-100Q409-49 366-19.5Q323 10 252 10ZM274-66L274-66Q340-66 379-98Q418-130 418-185L418-185L418-262L258-262Q214-262 186.5-235.5Q159-209 159-165L159-165Q159-119 189.5-92.5Q220-66 274-66Z"/>
<path id="pixel-64" d="M250-400L250-250L200-250L200-200L250-200L250-100L200-100L200-50L250-50L250 0L300 0L300-400ZM200-50L100-50L100 0L200 0ZM100-50L100-250L50-250L50-50ZM200-250L200-300L100-300L100-250Z"/>
<path id="mono-273d" d="M305 -340A145 52 0 0 1 595 -340A145 52 0 0 1 305 -340ZM303.53553390593277 -336.46446609406723A145 52 45 0 1 508.5965004500315 -131.4034995499685A145 52 45 0 1 303.53553390593277 -336.46446609406723ZM300 -335A145 52 90 0 1 300 -45A145 52 90 0 1 300 -335ZM296.46446609406723 -336.46446609406723A145 52 135 0 1 91.40349954996849 -131.40349954996847A145 52 135 0 1 296.46446609406723 -336.46446609406723ZM295 -340A145 52 180 0 1 5 -340A145 52 180 0 1 295 -340ZM296.4644660940673 -343.53553390593277A145 52 225 0 1 91.40349954996846 -548.5965004500315A145 52 225 0 1 296.4644660940673 -343.53553390593277ZM300 -345A145 52 270 0 1 300 -635A145 52 270 0 1 300 -345ZM303.5355339059327 -343.5355339059327A145 52 315 0 1 508.59650045003144 -548.5965004500315A145 52 315 0 1 303.5355339059327 -343.5355339059327Z"/>
<path id="mono-47" d="M304 10L304 10Q204 10 146-46Q88-102 88-200L88-200L88-530Q88-628 146-684Q204-740 304-740L304-740Q402-740 460-683.5Q518-627 518-530L518-530L428-530Q428-592 395.5-625.5Q363-659 304-659L304-659Q245-659 211.5-626Q178-593 178-531L178-531L178-200Q178-138 211.5-104Q245-70 304-70L304-70Q363-70 395.5-104Q428-138 428-200L428-200L428-300L280-300L280-382L518-382L518-200Q518-103 460-46.5Q402 10 304 10Z"/>
<path id="mono-73" d="M322 8L278 8Q186 8 135.5-33.5Q85-75 85-151L85-151L175-151Q175-113 202-91.5Q229-70 278-70L278-70L322-70Q372-70 399.5-92Q427-114 427-154L427-154Q427-225 362-234L362-234L210-256Q154-264 123-302.5Q92-341 92-404L92-404Q92-476 141.5-517Q191-558 278-558L278-558L322-558Q402-558 452.5-518.5Q503-479 507-415L507-415L416-415Q414-444 388.5-463Q363-482 322-482L322-482L278-482Q232-482 206-461Q180-440 180-404L180-404Q180-346 233-338L233-338L375-318Q515-298 515-154L515-154Q515-77 464.5-34.5Q414 8 322 8L322 8Z"/>
<path id="mono-67" d="M315 180L161 180L161 98L316 98Q363 98 390 71.5Q417 45 417 0L417 0L417-50L419-140L416-140Q408-91 369-64.5Q330-38 271-38L271-38Q186-38 137-92Q88-146 88-240L88-240L88-356Q88-450 137-505Q186-560 271-560L271-560Q330-560 369-532Q408-504 416-455L416-455L418-455L418-550L507-550L507 0Q507 83 455.5 131.5Q404 180 315 180L315 180ZM298-113L298-113Q354-113 386-148Q418-183 418-245L418-245L418-350Q418-412 386-447Q354-482 298-482L298-482Q241-482 209.5-449Q178-416 178-360L178-360L178-235Q178-179 209.5-146Q241-113 298-113Z"/>
<path id="mono-2026" d="M490 10L490 10Q468 10 454-5Q440-20 440-45L440-45L440-115Q440-140 454-155Q468-170 490-170L490-170Q513-170 526.5-155Q540-140 540-115L540-115L540-45Q540-20 526.5-5Q513 10 490 10ZM110 10L110 10Q88 10 74-5Q60-20 60-45L60-45L60-115Q60-140 74-155Q88-170 110-170L110-170Q133-170 146.5-155Q160-140 160-115L160-115L160-45Q160-20 146.5-5Q133 10 110 10ZM300 10L300 10Q278 10 264-5Q250-20 250-45L250-45L250-115Q250-140 264-155Q278-170 300-170L300-170Q323-170 336.5-155Q350-140 350-115L350-115L350-45Q350-20 336.5-5Q323 10 300 10Z"/>
<path id="mono-7e" d="M155-255L70-255L70-325Q70-384 106-419.5Q142-455 200-455L200-455Q237-455 262-442Q287-429 304-409.5Q321-390 334.5-370.5Q348-351 363-338Q378-325 398-325L398-325Q445-325 445-380L445-380L445-450L530-450L530-380Q530-322 494.5-286Q459-250 400-250L400-250Q363-250 338-263Q313-276 296-295.5Q279-315 265.5-334.5Q252-354 237-367Q222-380 202-380L202-380Q155-380 155-325L155-325L155-255Z"/>
<path id="mono-33" d="M289 10L289 10Q188 10 129-46.5Q70-103 70-200L70-200L160-200Q160-140 195-105Q230-70 290-70L290-70Q350-70 385-105Q420-140 420-200L420-200L420-250Q420-310 385-345Q350-380 290-380L290-380L211-380L211-458L390-648L90-648L90-730L492-730L492-646L316-459Q406-452 458-396.5Q510-341 510-250L510-250L510-200Q510-103 450.5-46.5Q391 10 289 10Z"/>
<path id="mono-6d" d="M144 0L60 0L60-550L138-550L138-477L140-477Q145-514 169.5-537Q194-560 232-560L232-560Q268-560 293-539Q318-518 329-482L329-482L330-482Q337-518 361.5-539Q386-560 424-560L424-560Q477-560 508.5-520.5Q540-481 540-418L540-418L540 0L456 0L456-419Q456-452 440-471.5Q424-491 396-491L396-491Q369-491 353-472Q337-453 337-420L337-420L337 0L263 0L263-419Q263-452 247-471.5Q231-491 204-491L204-491Q176-491 160-472Q144-453 144-420L144-420L144 0Z"/>
<path id="mono-28" d="M485 33L485 120Q342 88 263.5-14Q185-116 185-270L185-270L185-450Q185-604 263.5-706Q342-808 485-840L485-840L485-753Q421-738 373.5-696Q326-654 300.5-591.5Q275-529 275-450L275-450L275-270Q275-192 300.5-129Q326-66 373.5-24Q421 18 485 33L485 33Z"/>
<path id="mono-b7" d="M300-260L300-260Q263-260 240.5-282Q218-304 218-339L218-339Q218-376 240.5-399Q263-422 300-422L300-422Q337-422 359.5-399Q382-376 382-339L382-339Q382-304 359.5-282Q337-260 300-260Z"/>
<path id="mono-2193" d="M380-161L560-321L560-215L299 10L40-216L40-323L222-161Q236-149 246-135Q256-121 260-112L260-112L260-730L340-730L340-112Q342-120 353-133.5Q364-147 380-161L380-161Z"/>
<path id="mono-32" d="M527 0L86 0L86-83L329-343Q382-399 404-443Q426-487 426-529L426-529Q426-589 391.5-624.5Q357-660 298-660L298-660Q237-660 201.5-623.5Q166-587 166-525L166-525L76-525Q79-624 139-682Q199-740 298-740L298-740Q399-740 458.5-683Q518-626 518-528L518-528Q518-476 489.5-418Q461-360 392-288L392-288L195-82L527-82L527 0Z"/>
<path id="mono-2e" d="M300 10L300 10Q263 10 240.5-12Q218-34 218-69L218-69Q218-106 240.5-129Q263-152 300-152L300-152Q337-152 359.5-129Q382-106 382-69L382-69Q382-34 359.5-12Q337 10 300 10Z"/>
<path id="mono-39" d="M300 0L195 0L375-313L372-315Q362-299 335-289.5Q308-280 276-280L276-280Q213-280 165.5-308.5Q118-337 91-387Q64-437 64-503L64-503Q64-574 94-627Q124-680 177-710Q230-740 299-740L299-740Q370-740 423-710.5Q476-681 506-628.5Q536-576 536-507L536-507Q536-459 518-408.5Q500-358 469-303L469-303L300 0ZM300-350L300-350Q365-350 405.5-393Q446-436 446-505L446-505Q446-574 405.5-617Q365-660 300-660L300-660Q235-660 194.5-617Q154-574 154-505L154-505Q154-436 194.5-393Q235-350 300-350Z"/>
<path id="mono-6b" d="M187 0L97 0L97-730L187-730L187-323L292-323L446-550L549-550L372-288L559 0L454 0L294-245L187-245L187 0Z"/>
<path id="mono-29" d="M115 120L115 120L115 33Q180 18 227-24Q274-66 299.5-129Q325-192 325-270L325-270L325-450Q325-529 299.5-591.5Q274-654 227-696Q180-738 115-753L115-753L115-840Q258-808 336.5-706Q415-604 415-450L415-450L415-270Q415-116 336.5-14Q258 88 115 120Z"/>
<path id="mono-26a0" d="M541 0L59 0Q-10 0-10-56L-10-56Q-10-82 9-128L9-128L251-702Q267-740 300-740L300-740Q333-740 349-702L349-702L590-128Q610-82 610-56L610-56Q610 0 541 0L541 0ZM266-479L275-200L324-200L334-479L334-550L266-550L266-479ZM299-61L299-61Q343-61 343-103L343-103Q343-145 299-145L299-145Q255-145 255-103L255-103Q255-61 299-61Z"/>
<path id="mono-3a" d="M300-412L300-412Q259-412 238-432Q217-452 217-486L217-486Q217-520 238-540Q259-560 300-560L300-560Q341-560 362-540Q383-520 383-486L383-486Q383-452 362-432Q341-412 300-412ZM300 10L300 10Q259 10 238-10Q217-30 217-64L217-64Q217-98 238-118Q259-138 300-138L300-138Q341-138 362-118Q383-98 383-64L383-64Q383-30 362-10Q341 10 300 10Z"/>
<path id="mono-2588" d="M600 300L0 300L0-1020L600-1020L600 300Z"/>
<path id="mono-2591" d="M600-960L540-960L540-1020L600-1020L600-960ZM120-960L60-960L60-1020L120-1020L120-960ZM240-960L180-960L180-1020L240-1020L240-960ZM360-960L300-960L300-1020L360-1020L360-960ZM480-960L420-960L420-1020L480-1020L480-960ZM600-840L540-840L540-900L600-900L600-840ZM120-840L60-840L60-900L120-900L120-840ZM240-840L180-840L180-900L240-900L240-840ZM360-840L300-840L300-900L360-900L360-840ZM480-840L420-840L420-900L480-900L480-840ZM600-720L540-720L540-780L600-780L600-720ZM120-720L60-720L60-780L120-780L120-720ZM240-720L180-720L180-780L240-780L240-720ZM360-720L300-720L300-780L360-780L360-720ZM480-720L420-720L420-780L480-780L480-720ZM600-600L540-600L540-660L600-660L600-600ZM120-600L60-600L60-660L120-660L120-600ZM240-600L180-600L180-660L240-660L240-600ZM360-600L300-600L300-660L360-660L360-600ZM480-600L420-600L420-660L480-660L480-600ZM600-480L540-480L540-540L600-540L600-480ZM120-480L60-480L60-540L120-540L120-480ZM240-480L180-480L180-540L240-540L240-480ZM360-480L300-480L300-540L360-540L360-480ZM480-480L420-480L420-540L480-540L480-480ZM600-360L540-360L540-420L600-420L600-360ZM120-360L60-360L60-420L120-420L120-360ZM240-360L180-360L180-420L240-420L240-360ZM360-360L300-360L300-420L360-420L360-360ZM480-360L420-360L420-420L480-420L480-360ZM600-240L540-240L540-300L600-300L600-240ZM120-240L60-240L60-300L120-300L120-240ZM240-240L180-240L180-300L240-300L240-240ZM360-240L300-240L300-300L360-300L360-240ZM480-240L420-240L420-300L480-300L480-240ZM600-120L540-120L540-180L600-180L600-120ZM120-120L60-120L60-180L120-180L120-120ZM240-120L180-120L180-180L240-180L240-120ZM360-120L300-120L300-180L360-180L360-120ZM480-120L420-120L420-180L480-180L480-120ZM600 0L540 0L540-60L600-60L600 0ZM120 0L60 0L60-60L120-60L120 0ZM240 0L180 0L180-60L240-60L240 0ZM360 0L300 0L300-60L360-60L360 0ZM480 0L420 0L420-60L480-60L480 0ZM600 120L540 120L540 60L600 60L600 120ZM120 120L60 120L60 60L120 60L120 120ZM240 120L180 120L180 60L240 60L240 120ZM360 120L300 120L300 60L360 60L360 120ZM480 120L420 120L420 60L480 60L480 120ZM600 240L540 240L540 180L600 180L600 240ZM120 240L60 240L60 180L120 180L120 240ZM240 240L180 240L180 180L240 180L240 240ZM360 240L300 240L300 180L360 180L360 240ZM480 240L420 240L420 180L480 180L480 240Z"/>
<path id="mono-34" d="M490 0L400 0L400-160L70-160L70-301L336-730L438-730L160-281L160-242L400-242L400-420L490-420L490 0Z"/>
<path id="mono-2f" d="M170 110L75 110L430-830L525-830L170 110Z"/>
<path id="mono-70" d="M182 180L92 180L92-550L182-550L182-445L183-445Q190-499 230-529.5Q270-560 332-560L332-560Q415-560 464-505.5Q513-451 513-356L513-356L513-195Q513-100 464-45Q415 10 332 10L332 10Q270 10 230-21Q190-52 183-105L183-105L180-105L182 20L182 180ZM302-68L302-68Q359-68 391-98Q423-128 423-195L423-195L423-355Q423-423 391-452.5Q359-482 302-482L302-482Q247-482 214.5-447Q182-412 182-350L182-350L182-200Q182-138 214.5-103Q247-68 302-68Z"/>
<path id="mono-2d" d="M460-290L140-290L140-370L460-370L460-290Z"/>
</defs>
<rect width="1280" height="640" fill="#191C36"/>
<rect width="1280" height="320" fill="#191C36"/>
<path d="M480 0h8v8h-8zM512 0h8v8h-8zM544 0h8v8h-8zM576 0h8v8h-8zM608 0h8v8h-8zM640 0h8v8h-8zM672 0h8v8h-8zM704 0h8v8h-8zM736 0h8v8h-8zM768 0h8v8h-8zM800 0h8v8h-8zM832 0h8v8h-8zM864 0h8v8h-8zM896 0h8v8h-8zM928 0h8v8h-8zM960 0h8v8h-8zM992 0h8v8h-8zM1024 0h8v8h-8zM1056 0h8v8h-8zM1088 0h8v8h-8zM1120 0h8v8h-8zM1152 0h8v8h-8zM1184 0h8v8h-8zM1216 0h8v8h-8zM1248 0h8v8h-8zM496 8h8v8h-8zM528 8h8v8h-8zM560 8h8v8h-8zM592 8h8v8h-8zM624 8h8v8h-8zM656 8h8v8h-8zM688 8h8v8h-8zM720 8h8v8h-8zM752 8h8v8h-8zM784 8h8v8h-8zM816 8h8v8h-8zM848 8h8v8h-8zM880 8h8v8h-8zM912 8h8v8h-8zM944 8h8v8h-8zM976 8h8v8h-8zM1008 8h8v8h-8zM1040 8h8v8h-8zM1072 8h8v8h-8zM1104 8h8v8h-8zM1136 8h8v8h-8zM1168 8h8v8h-8zM1200 8h8v8h-8zM1232 8h8v8h-8zM1264 8h8v8h-8zM480 16h8v8h-8zM512 16h8v8h-8zM544 16h8v8h-8zM576 16h8v8h-8zM608 16h8v8h-8zM640 16h8v8h-8zM672 16h8v8h-8zM704 16h8v8h-8zM736 16h8v8h-8zM768 16h8v8h-8zM800 16h8v8h-8zM832 16h8v8h-8zM864 16h8v8h-8zM896 16h8v8h-8zM928 16h8v8h-8zM960 16h8v8h-8zM992 16h8v8h-8zM1024 16h8v8h-8zM1056 16h8v8h-8zM1088 16h8v8h-8zM1120 16h8v8h-8zM1152 16h8v8h-8zM1184 16h8v8h-8zM1216 16h8v8h-8zM1248 16h8v8h-8zM496 24h8v8h-8zM528 24h8v8h-8zM560 24h8v8h-8zM592 24h8v8h-8zM624 24h8v8h-8zM656 24h8v8h-8zM688 24h8v8h-8zM720 24h8v8h-8zM752 24h8v8h-8zM784 24h8v8h-8zM816 24h8v8h-8zM848 24h8v8h-8zM880 24h8v8h-8zM912 24h8v8h-8zM944 24h8v8h-8zM976 24h8v8h-8zM1008 24h8v8h-8zM1040 24h8v8h-8zM1072 24h8v8h-8zM1104 24h8v8h-8zM1136 24h8v8h-8zM1168 24h8v8h-8zM1200 24h8v8h-8zM1232 24h8v8h-8zM1264 24h8v8h-8zM480 32h8v8h-8zM512 32h8v8h-8zM544 32h8v8h-8zM576 32h8v8h-8zM608 32h8v8h-8zM640 32h8v8h-8zM672 32h8v8h-8zM704 32h8v8h-8zM736 32h8v8h-8zM768 32h8v8h-8zM800 32h8v8h-8zM832 32h8v8h-8zM864 32h8v8h-8zM896 32h8v8h-8zM928 32h8v8h-8zM960 32h8v8h-8zM992 32h8v8h-8zM1024 32h8v8h-8zM1056 32h8v8h-8zM1088 32h8v8h-8zM1120 32h8v8h-8zM1152 32h8v8h-8zM1184 32h8v8h-8zM1216 32h8v8h-8zM1248 32h8v8h-8zM496 40h8v8h-8zM528 40h8v8h-8zM560 40h8v8h-8zM592 40h8v8h-8zM624 40h8v8h-8zM656 40h8v8h-8zM688 40h8v8h-8zM720 40h8v8h-8zM752 40h8v8h-8zM784 40h8v8h-8zM816 40h8v8h-8zM848 40h8v8h-8zM880 40h8v8h-8zM912 40h8v8h-8zM944 40h8v8h-8zM976 40h8v8h-8zM1008 40h8v8h-8zM1040 40h8v8h-8zM1072 40h8v8h-8zM1104 40h8v8h-8zM1136 40h8v8h-8zM1168 40h8v8h-8zM1200 40h8v8h-8zM1232 40h8v8h-8zM1264 40h8v8h-8zM480 48h8v8h-8zM512 48h8v8h-8zM544 48h8v8h-8zM576 48h8v8h-8zM608 48h8v8h-8zM640 48h8v8h-8zM672 48h8v8h-8zM704 48h8v8h-8zM736 48h8v8h-8zM768 48h8v8h-8zM800 48h8v8h-8zM832 48h8v8h-8zM864 48h8v8h-8zM896 48h8v8h-8zM928 48h8v8h-8zM960 48h8v8h-8zM992 48h8v8h-8zM1024 48h8v8h-8zM1056 48h8v8h-8zM1088 48h8v8h-8zM1120 48h8v8h-8zM1152 48h8v8h-8zM1184 48h8v8h-8zM1216 48h8v8h-8zM1248 48h8v8h-8zM496 56h8v8h-8zM528 56h8v8h-8zM560 56h8v8h-8zM592 56h8v8h-8zM624 56h8v8h-8zM656 56h8v8h-8zM688 56h8v8h-8zM720 56h8v8h-8zM752 56h8v8h-8zM784 56h8v8h-8zM816 56h8v8h-8zM848 56h8v8h-8zM880 56h8v8h-8zM912 56h8v8h-8zM944 56h8v8h-8zM976 56h8v8h-8zM1008 56h8v8h-8zM1040 56h8v8h-8zM1072 56h8v8h-8zM1104 56h8v8h-8zM1136 56h8v8h-8zM1168 56h8v8h-8zM1200 56h8v8h-8zM1232 56h8v8h-8zM1264 56h8v8h-8zM480 64h8v8h-8zM512 64h8v8h-8zM544 64h8v8h-8zM576 64h8v8h-8zM608 64h8v8h-8zM640 64h8v8h-8zM672 64h8v8h-8zM704 64h8v8h-8zM736 64h8v8h-8zM768 64h8v8h-8zM800 64h8v8h-8zM832 64h8v8h-8zM864 64h8v8h-8zM896 64h8v8h-8zM928 64h8v8h-8zM960 64h8v8h-8zM992 64h8v8h-8zM1024 64h8v8h-8zM1056 64h8v8h-8zM1088 64h8v8h-8zM1120 64h8v8h-8zM1152 64h8v8h-8zM1184 64h8v8h-8zM1216 64h8v8h-8zM1248 64h8v8h-8zM496 72h8v8h-8zM528 72h8v8h-8zM560 72h8v8h-8zM592 72h8v8h-8zM624 72h8v8h-8zM656 72h8v8h-8zM688 72h8v8h-8zM720 72h8v8h-8zM752 72h8v8h-8zM784 72h8v8h-8zM816 72h8v8h-8zM848 72h8v8h-8zM880 72h8v8h-8zM912 72h8v8h-8zM944 72h8v8h-8zM976 72h8v8h-8zM1008 72h8v8h-8zM1040 72h8v8h-8zM1072 72h8v8h-8zM1104 72h8v8h-8zM1136 72h8v8h-8zM1168 72h8v8h-8zM1200 72h8v8h-8zM1232 72h8v8h-8zM1264 72h8v8h-8zM480 80h8v8h-8zM512 80h8v8h-8zM544 80h8v8h-8zM576 80h8v8h-8zM608 80h8v8h-8zM640 80h8v8h-8zM672 80h8v8h-8zM704 80h8v8h-8zM736 80h8v8h-8zM768 80h8v8h-8zM800 80h8v8h-8zM832 80h8v8h-8zM864 80h8v8h-8zM896 80h8v8h-8zM928 80h8v8h-8zM960 80h8v8h-8zM992 80h8v8h-8zM1024 80h8v8h-8zM1056 80h8v8h-8zM1088 80h8v8h-8zM1120 80h8v8h-8zM1152 80h8v8h-8zM1184 80h8v8h-8zM1216 80h8v8h-8zM1248 80h8v8h-8zM496 88h8v8h-8zM1200 88h8v8h-8zM1232 88h8v8h-8zM1264 88h8v8h-8zM480 96h8v8h-8zM512 96h8v8h-8zM1184 96h8v8h-8zM1216 96h8v8h-8zM1248 96h8v8h-8zM496 104h8v8h-8zM1200 104h8v8h-8zM1232 104h8v8h-8zM1264 104h8v8h-8zM480 112h8v8h-8zM512 112h8v8h-8zM1184 112h8v8h-8zM1216 112h8v8h-8zM1248 112h8v8h-8zM496 120h8v8h-8zM1200 120h8v8h-8zM1232 120h8v8h-8zM1264 120h8v8h-8zM480 128h8v8h-8zM512 128h8v8h-8zM1184 128h8v8h-8zM1216 128h8v8h-8zM1248 128h8v8h-8zM496 136h8v8h-8zM1200 136h8v8h-8zM1232 136h8v8h-8zM1264 136h8v8h-8zM480 144h8v8h-8zM512 144h8v8h-8zM1184 144h8v8h-8zM1216 144h8v8h-8zM1248 144h8v8h-8zM496 152h8v8h-8zM528 152h8v8h-8zM560 152h8v8h-8zM592 152h8v8h-8zM624 152h8v8h-8zM656 152h8v8h-8zM688 152h8v8h-8zM720 152h8v8h-8zM752 152h8v8h-8zM784 152h8v8h-8zM816 152h8v8h-8zM848 152h8v8h-8zM880 152h8v8h-8zM912 152h8v8h-8zM944 152h8v8h-8zM976 152h8v8h-8zM1008 152h8v8h-8zM1040 152h8v8h-8zM1072 152h8v8h-8zM1104 152h8v8h-8zM1136 152h8v8h-8zM1168 152h8v8h-8zM1200 152h8v8h-8zM1232 152h8v8h-8zM1264 152h8v8h-8zM480 160h8v8h-8zM512 160h8v8h-8zM544 160h8v8h-8zM576 160h8v8h-8zM608 160h8v8h-8zM640 160h8v8h-8zM672 160h8v8h-8zM704 160h8v8h-8zM736 160h8v8h-8zM768 160h8v8h-8zM800 160h8v8h-8zM832 160h8v8h-8zM864 160h8v8h-8zM896 160h8v8h-8zM928 160h8v8h-8zM960 160h8v8h-8zM992 160h8v8h-8zM1024 160h8v8h-8zM1056 160h8v8h-8zM1088 160h8v8h-8zM1120 160h8v8h-8zM1152 160h8v8h-8zM1184 160h8v8h-8zM1216 160h8v8h-8zM1248 160h8v8h-8zM496 168h8v8h-8zM976 168h8v8h-8zM1008 168h8v8h-8zM1040 168h8v8h-8zM1072 168h8v8h-8zM1104 168h8v8h-8zM1136 168h8v8h-8zM1168 168h8v8h-8zM1200 168h8v8h-8zM1232 168h8v8h-8zM1264 168h8v8h-8zM480 176h8v8h-8zM512 176h8v8h-8zM960 176h8v8h-8zM992 176h8v8h-8zM1024 176h8v8h-8zM1056 176h8v8h-8zM1088 176h8v8h-8zM1120 176h8v8h-8zM1152 176h8v8h-8zM1184 176h8v8h-8zM1216 176h8v8h-8zM1248 176h8v8h-8zM496 184h8v8h-8zM976 184h8v8h-8zM1008 184h8v8h-8zM1040 184h8v8h-8zM1072 184h8v8h-8zM1104 184h8v8h-8zM1136 184h8v8h-8zM1168 184h8v8h-8zM1200 184h8v8h-8zM1232 184h8v8h-8zM1264 184h8v8h-8zM480 192h8v8h-8zM512 192h8v8h-8zM960 192h8v8h-8zM992 192h8v8h-8zM1024 192h8v8h-8zM1056 192h8v8h-8zM1088 192h8v8h-8zM1120 192h8v8h-8zM1152 192h8v8h-8zM1184 192h8v8h-8zM1216 192h8v8h-8zM1248 192h8v8h-8zM496 200h8v8h-8zM976 200h8v8h-8zM1008 200h8v8h-8zM1040 200h8v8h-8zM1072 200h8v8h-8zM1104 200h8v8h-8zM1136 200h8v8h-8zM1168 200h8v8h-8zM1200 200h8v8h-8zM1232 200h8v8h-8zM1264 200h8v8h-8zM480 208h8v8h-8zM512 208h8v8h-8zM960 208h8v8h-8zM992 208h8v8h-8zM1024 208h8v8h-8zM1056 208h8v8h-8zM1088 208h8v8h-8zM1120 208h8v8h-8zM1152 208h8v8h-8zM1184 208h8v8h-8zM1216 208h8v8h-8zM1248 208h8v8h-8zM496 216h8v8h-8zM976 216h8v8h-8zM1008 216h8v8h-8zM1040 216h8v8h-8zM1072 216h8v8h-8zM1104 216h8v8h-8zM1136 216h8v8h-8zM1168 216h8v8h-8zM1200 216h8v8h-8zM1232 216h8v8h-8zM1264 216h8v8h-8zM480 224h8v8h-8zM512 224h8v8h-8zM544 224h8v8h-8zM576 224h8v8h-8zM608 224h8v8h-8zM640 224h8v8h-8zM672 224h8v8h-8zM704 224h8v8h-8zM736 224h8v8h-8zM768 224h8v8h-8zM800 224h8v8h-8zM832 224h8v8h-8zM864 224h8v8h-8zM896 224h8v8h-8zM928 224h8v8h-8zM960 224h8v8h-8zM992 224h8v8h-8zM1024 224h8v8h-8zM1056 224h8v8h-8zM1088 224h8v8h-8zM1120 224h8v8h-8zM1152 224h8v8h-8zM1184 224h8v8h-8zM1216 224h8v8h-8zM1248 224h8v8h-8zM496 232h8v8h-8zM528 232h8v8h-8zM560 232h8v8h-8zM592 232h8v8h-8zM624 232h8v8h-8zM656 232h8v8h-8zM688 232h8v8h-8zM720 232h8v8h-8zM752 232h8v8h-8zM784 232h8v8h-8zM816 232h8v8h-8zM848 232h8v8h-8zM880 232h8v8h-8zM912 232h8v8h-8zM944 232h8v8h-8zM976 232h8v8h-8zM1008 232h8v8h-8zM1040 232h8v8h-8zM1072 232h8v8h-8zM1104 232h8v8h-8zM1136 232h8v8h-8zM1168 232h8v8h-8zM1200 232h8v8h-8zM1232 232h8v8h-8zM1264 232h8v8h-8zM480 240h8v8h-8zM512 240h8v8h-8zM544 240h8v8h-8zM576 240h8v8h-8zM608 240h8v8h-8zM640 240h8v8h-8zM672 240h8v8h-8zM704 240h8v8h-8zM736 240h8v8h-8zM768 240h8v8h-8zM800 240h8v8h-8zM832 240h8v8h-8zM864 240h8v8h-8zM896 240h8v8h-8zM928 240h8v8h-8zM960 240h8v8h-8zM992 240h8v8h-8zM1024 240h8v8h-8zM1056 240h8v8h-8zM1088 240h8v8h-8zM1120 240h8v8h-8zM1152 240h8v8h-8zM1184 240h8v8h-8zM1216 240h8v8h-8zM1248 240h8v8h-8zM496 248h8v8h-8zM528 248h8v8h-8zM560 248h8v8h-8zM592 248h8v8h-8zM624 248h8v8h-8zM656 248h8v8h-8zM688 248h8v8h-8zM720 248h8v8h-8zM752 248h8v8h-8zM784 248h8v8h-8zM816 248h8v8h-8zM848 248h8v8h-8zM880 248h8v8h-8zM912 248h8v8h-8zM944 248h8v8h-8zM976 248h8v8h-8zM1008 248h8v8h-8zM1040 248h8v8h-8zM1072 248h8v8h-8zM1104 248h8v8h-8zM1136 248h8v8h-8zM1168 248h8v8h-8zM1200 248h8v8h-8zM1232 248h8v8h-8zM1264 248h8v8h-8zM480 256h8v8h-8zM512 256h8v8h-8zM544 256h8v8h-8zM576 256h8v8h-8zM608 256h8v8h-8zM640 256h8v8h-8zM672 256h8v8h-8zM704 256h8v8h-8zM736 256h8v8h-8zM768 256h8v8h-8zM800 256h8v8h-8zM832 256h8v8h-8zM864 256h8v8h-8zM896 256h8v8h-8zM928 256h8v8h-8zM960 256h8v8h-8zM992 256h8v8h-8zM1024 256h8v8h-8zM1056 256h8v8h-8zM1088 256h8v8h-8zM1120 256h8v8h-8zM1152 256h8v8h-8zM1184 256h8v8h-8zM1216 256h8v8h-8zM1248 256h8v8h-8zM496 264h8v8h-8zM528 264h8v8h-8zM560 264h8v8h-8zM592 264h8v8h-8zM624 264h8v8h-8zM656 264h8v8h-8zM688 264h8v8h-8zM720 264h8v8h-8zM752 264h8v8h-8zM784 264h8v8h-8zM816 264h8v8h-8zM848 264h8v8h-8zM880 264h8v8h-8zM912 264h8v8h-8zM944 264h8v8h-8zM976 264h8v8h-8zM1008 264h8v8h-8zM1040 264h8v8h-8zM1072 264h8v8h-8zM1104 264h8v8h-8zM1136 264h8v8h-8zM1168 264h8v8h-8zM1200 264h8v8h-8zM1232 264h8v8h-8zM1264 264h8v8h-8zM480 272h8v8h-8zM512 272h8v8h-8zM544 272h8v8h-8zM576 272h8v8h-8zM608 272h8v8h-8zM640 272h8v8h-8zM672 272h8v8h-8zM704 272h8v8h-8zM736 272h8v8h-8zM768 272h8v8h-8zM800 272h8v8h-8zM832 272h8v8h-8zM864 272h8v8h-8zM896 272h8v8h-8zM928 272h8v8h-8zM960 272h8v8h-8zM992 272h8v8h-8zM1024 272h8v8h-8zM1056 272h8v8h-8zM1088 272h8v8h-8zM1120 272h8v8h-8zM1152 272h8v8h-8zM1184 272h8v8h-8zM1216 272h8v8h-8zM1248 272h8v8h-8zM496 280h8v8h-8zM528 280h8v8h-8zM560 280h8v8h-8zM592 280h8v8h-8zM624 280h8v8h-8zM656 280h8v8h-8zM688 280h8v8h-8zM720 280h8v8h-8zM752 280h8v8h-8zM784 280h8v8h-8zM816 280h8v8h-8zM848 280h8v8h-8zM880 280h8v8h-8zM912 280h8v8h-8zM944 280h8v8h-8zM976 280h8v8h-8zM1008 280h8v8h-8zM1040 280h8v8h-8zM1072 280h8v8h-8zM1104 280h8v8h-8zM1136 280h8v8h-8zM1168 280h8v8h-8zM1200 280h8v8h-8zM1232 280h8v8h-8zM1264 280h8v8h-8zM480 288h8v8h-8zM512 288h8v8h-8zM544 288h8v8h-8zM576 288h8v8h-8zM608 288h8v8h-8zM640 288h8v8h-8zM672 288h8v8h-8zM704 288h8v8h-8zM736 288h8v8h-8zM768 288h8v8h-8zM800 288h8v8h-8zM832 288h8v8h-8zM864 288h8v8h-8zM896 288h8v8h-8zM928 288h8v8h-8zM960 288h8v8h-8zM992 288h8v8h-8zM1024 288h8v8h-8zM1056 288h8v8h-8zM1088 288h8v8h-8zM1120 288h8v8h-8zM1152 288h8v8h-8zM1184 288h8v8h-8zM1216 288h8v8h-8zM1248 288h8v8h-8zM496 296h8v8h-8zM528 296h8v8h-8zM560 296h8v8h-8zM592 296h8v8h-8zM624 296h8v8h-8zM656 296h8v8h-8zM688 296h8v8h-8zM720 296h8v8h-8zM752 296h8v8h-8zM784 296h8v8h-8zM816 296h8v8h-8zM848 296h8v8h-8zM880 296h8v8h-8zM912 296h8v8h-8zM944 296h8v8h-8zM976 296h8v8h-8zM1008 296h8v8h-8zM1040 296h8v8h-8zM1072 296h8v8h-8zM1104 296h8v8h-8zM1136 296h8v8h-8zM1168 296h8v8h-8zM1200 296h8v8h-8zM1232 296h8v8h-8zM1264 296h8v8h-8zM480 304h8v8h-8zM512 304h8v8h-8zM544 304h8v8h-8zM576 304h8v8h-8zM608 304h8v8h-8zM640 304h8v8h-8zM672 304h8v8h-8zM704 304h8v8h-8zM736 304h8v8h-8zM768 304h8v8h-8zM800 304h8v8h-8zM832 304h8v8h-8zM864 304h8v8h-8zM896 304h8v8h-8zM928 304h8v8h-8zM960 304h8v8h-8zM992 304h8v8h-8zM1024 304h8v8h-8zM1056 304h8v8h-8zM1088 304h8v8h-8zM1120 304h8v8h-8zM1152 304h8v8h-8zM1184 304h8v8h-8zM1216 304h8v8h-8zM1248 304h8v8h-8zM496 312h8v8h-8zM528 312h8v8h-8zM560 312h8v8h-8zM592 312h8v8h-8zM624 312h8v8h-8zM656 312h8v8h-8zM688 312h8v8h-8zM720 312h8v8h-8zM752 312h8v8h-8zM784 312h8v8h-8zM816 312h8v8h-8zM848 312h8v8h-8zM880 312h8v8h-8zM912 312h8v8h-8zM944 312h8v8h-8zM976 312h8v8h-8zM1008 312h8v8h-8zM1040 312h8v8h-8zM1072 312h8v8h-8zM1104 312h8v8h-8zM1136 312h8v8h-8zM1168 312h8v8h-8zM1200 312h8v8h-8zM1232 312h8v8h-8zM1264 312h8v8h-8z" fill="#A57A47"/>
<rect width="480" height="320" fill="#F7B24A"/>
<g transform="translate(44 192) scale(0.16)"><g fill="#191C36"><use href="#pixel-6c" x="0"/><use href="#pixel-6f" x="350"/><use href="#pixel-61" x="700"/><use href="#pixel-64" x="1050"/><use href="#pixel-69" x="1400"/><use href="#pixel-6e" x="1750"/><use href="#pixel-67" x="2100"/></g></g>
<g transform="translate(552 132) scale(0.06)"><g fill="#F2EBDD"><use href="#pixel-48" x="0"/><use href="#pixel-6f" x="350"/><use href="#pixel-77" x="700"/><use href="#pixel-6c" x="1400"/><use href="#pixel-6f" x="1750"/><use href="#pixel-6e" x="2100"/><use href="#pixel-67" x="2450"/><use href="#pixel-77" x="3150"/><use href="#pixel-69" x="3500"/><use href="#pixel-6c" x="3850"/><use href="#pixel-6c" x="4200"/><use href="#pixel-74" x="4900"/><use href="#pixel-68" x="5250"/><use href="#pixel-69" x="5600"/><use href="#pixel-73" x="5950"/><use href="#pixel-74" x="6650"/><use href="#pixel-61" x="7000"/><use href="#pixel-73" x="7350"/><use href="#pixel-6b" x="7700"/><use href="#pixel-74" x="8400"/><use href="#pixel-61" x="8750"/><use href="#pixel-6b" x="9100"/><use href="#pixel-65" x="9450"/><use href="#pixel-3f" x="9800"/></g></g>
<g transform="translate(552 204) scale(0.02)"><g fill="#9298BE"><use href="#mono-41" x="0"/><use href="#mono-6c" x="1200"/><use href="#mono-69" x="1800"/><use href="#mono-76" x="2400"/><use href="#mono-65" x="3000"/><use href="#mono-63" x="4200"/><use href="#mono-6f" x="4800"/><use href="#mono-75" x="5400"/><use href="#mono-6e" x="6000"/><use href="#mono-74" x="6600"/><use href="#mono-64" x="7200"/><use href="#mono-6f" x="7800"/><use href="#mono-77" x="8400"/><use href="#mono-6e" x="9000"/><use href="#mono-66" x="10200"/><use href="#mono-6f" x="10800"/><use href="#mono-72" x="11400"/><use href="#mono-43" x="12600"/><use href="#mono-6c" x="13200"/><use href="#mono-61" x="13800"/><use href="#mono-75" x="14400"/><use href="#mono-64" x="15000"/><use href="#mono-65" x="15600"/><use href="#mono-43" x="16800"/><use href="#mono-6f" x="17400"/><use href="#mono-64" x="18000"/><use href="#mono-65" x="18600"/></g></g>
<g transform="translate(72 410) scale(0.028)"><g fill="#D97757"><use href="#mono-273d" x="0"/></g><g fill="#D97757"><use href="#mono-47" x="1200"/><use href="#mono-75" x="1800"/><use href="#mono-73" x="2400"/><use href="#mono-74" x="3000"/><use href="#mono-69" x="3600"/><use href="#mono-6e" x="4200"/><use href="#mono-67" x="4800"/><use href="#mono-2026" x="5400"/><use href="#mono-7e" x="6600"/><use href="#mono-33" x="7200"/><use href="#mono-6d" x="7800"/><use href="#mono-6c" x="9000"/><use href="#mono-65" x="9600"/><use href="#mono-66" x="10200"/><use href="#mono-74" x="10800"/></g><g fill="#8C91AE"><use href="#mono-28" x="12000"/><use href="#mono-33" x="12600"/><use href="#mono-33" x="13200"/><use href="#mono-73" x="13800"/><use href="#mono-b7" x="15000"/><use href="#mono-2193" x="16200"/><use href="#mono-32" x="17400"/><use href="#mono-2e" x="18000"/><use href="#mono-39" x="18600"/><use href="#mono-6b" x="19200"/><use href="#mono-74" x="20400"/><use href="#mono-6f" x="21000"/><use href="#mono-6b" x="21600"/><use href="#mono-65" x="22200"/><use href="#mono-6e" x="22800"/><use href="#mono-73" x="23400"/><use href="#mono-29" x="24000"/></g></g>
<g transform="translate(72 466) scale(0.028)"><g fill="#F2C14E"><use href="#mono-26a0" x="0"/><use href="#mono-6c" x="1200"/><use href="#mono-6f" x="1800"/><use href="#mono-61" x="2400"/><use href="#mono-64" x="3000"/><use href="#mono-69" x="3600"/><use href="#mono-6e" x="4200"/><use href="#mono-67" x="4800"/><use href="#mono-3a" x="5400"/></g><g fill="#E4E2EC"><use href="#mono-2588" x="6600"/><use href="#mono-2588" x="7200"/><use href="#mono-2591" x="7800"/><use href="#mono-2591" x="8400"/><use href="#mono-2591" x="9000"/><use href="#mono-2591" x="9600"/><use href="#mono-2591" x="10200"/><use href="#mono-2591" x="10800"/><use href="#mono-7e" x="12000"/><use href="#mono-33" x="12600"/><use href="#mono-6d" x="13200"/><use href="#mono-6c" x="14400"/><use href="#mono-65" x="15000"/><use href="#mono-66" x="15600"/><use href="#mono-74" x="16200"/><use href="#mono-b7" x="17400"/><use href="#mono-65" x="18600"/><use href="#mono-73" x="19200"/><use href="#mono-74" x="19800"/><use href="#mono-34" x="21000"/><use href="#mono-6d" x="21600"/></g></g>
<rect x="72" y="530" width="1136" height="1" fill="#2C3158"/>
<g transform="translate(72 584) scale(0.022)"><g fill="#9298BE"><use href="#mono-2f" x="0"/><use href="#mono-70" x="600"/><use href="#mono-6c" x="1200"/><use href="#mono-75" x="1800"/><use href="#mono-67" x="2400"/><use href="#mono-69" x="3000"/><use href="#mono-6e" x="3600"/><use href="#mono-69" x="4800"/><use href="#mono-6e" x="5400"/><use href="#mono-73" x="6000"/><use href="#mono-74" x="6600"/><use href="#mono-61" x="7200"/><use href="#mono-6c" x="7800"/><use href="#mono-6c" x="8400"/><use href="#mono-6c" x="9600"/><use href="#mono-6f" x="10200"/><use href="#mono-61" x="10800"/><use href="#mono-64" x="11400"/><use href="#mono-69" x="12000"/><use href="#mono-6e" x="12600"/><use href="#mono-67" x="13200"/><use href="#mono-2d" x="14400"/><use href="#mono-2d" x="15000"/><use href="#mono-6d" x="15600"/><use href="#mono-61" x="16200"/><use href="#mono-72" x="16800"/><use href="#mono-6b" x="17400"/><use href="#mono-65" x="18000"/><use href="#mono-74" x="18600"/><use href="#mono-70" x="19200"/><use href="#mono-6c" x="19800"/><use href="#mono-61" x="20400"/><use href="#mono-63" x="21000"/><use href="#mono-65" x="21600"/><use href="#mono-61" x="22800"/><use href="#mono-77" x="23400"/><use href="#mono-6c" x="24000"/><use href="#mono-65" x="24600"/><use href="#mono-76" x="25200"/><use href="#mono-69" x="25800"/><use href="#mono-6e" x="26400"/><use href="#mono-2f" x="27000"/><use href="#mono-63" x="27600"/><use href="#mono-6c" x="28200"/><use href="#mono-61" x="28800"/><use href="#mono-75" x="29400"/><use href="#mono-64" x="30000"/><use href="#mono-65" x="30600"/><use href="#mono-2d" x="31200"/><use href="#mono-6c" x="31800"/><use href="#mono-6f" x="32400"/><use href="#mono-61" x="33000"/><use href="#mono-64" x="33600"/></g></g>
</svg>
